<svg width="32" height="32" viewBox="0 0 32 32" fill="none" xmlns="http://www.w3.org/2000/svg">
<path d="M16 30C23.7192 30 30 23.7198 30 16C30 14.6676 29.814 13.3545 29.4457 12.097C29.2643 11.4786 28.6186 11.1234 27.9985 11.3048C27.3796 11.4857 27.0255 12.1337 27.2064 12.7521C27.5114 13.7968 27.6667 14.89 27.6667 16C27.6667 22.4329 22.4329 27.6667 16 27.6667C9.5671 27.6667 4.33333 22.4329 4.33333 16C4.33333 9.5671 9.5671 4.33333 16 4.33333C18.3379 4.33333 20.5872 5.01693 22.5047 6.30977C23.0385 6.67008 23.7642 6.52852 24.1239 5.99475C24.484 5.46041 24.3435 4.73523 23.8092 4.3752C21.5049 2.82145 18.8047 2 16 2C8.2808 2 2 8.28023 2 16C2 23.7198 8.2808 30 16 30Z" fill="#87A01A"/>
<path d="M28.0096 4.67361L16.0011 16.6815L12.1593 12.8403C11.7036 12.3848 10.9653 12.3848 10.5096 12.8403C10.0541 13.296 10.0541 14.0343 10.5096 14.49L15.1762 19.1567C15.4044 19.3848 15.7023 19.4985 16.0011 19.4985C16.2999 19.4985 16.5978 19.3848 16.826 19.1567L29.6593 6.32335C30.1147 5.86762 30.1147 5.12934 29.6593 4.67361C29.2036 4.21817 28.4653 4.21817 28.0096 4.67361Z" fill="#87A01A"/>
</svg>
