<svg width="40" height="40" viewBox="0 0 40 40" fill="none" xmlns="http://www.w3.org/2000/svg">
<path d="M30.5004 9.51655C30.3462 9.36205 30.163 9.23947 29.9614 9.15583C29.7598 9.07219 29.5437 9.02914 29.3254 9.02914C29.1071 9.02914 28.891 9.07219 28.6893 9.15583C28.4877 9.23947 28.3046 9.36205 28.1504 9.51655L20.0004 17.6499L11.8504 9.49988C11.6961 9.34558 11.5129 9.22318 11.3113 9.13967C11.1097 9.05616 10.8936 9.01318 10.6754 9.01318C10.4572 9.01318 10.2411 9.05616 10.0395 9.13967C9.83786 9.22318 9.65468 9.34558 9.50037 9.49988C9.34607 9.65419 9.22367 9.83737 9.14016 10.039C9.05665 10.2406 9.01367 10.4567 9.01367 10.6749C9.01367 10.8931 9.05665 11.1092 9.14016 11.3108C9.22367 11.5124 9.34607 11.6956 9.50037 11.8499L17.6504 19.9999L9.50037 28.1499C9.34607 28.3042 9.22367 28.4874 9.14016 28.689C9.05665 28.8906 9.01367 29.1067 9.01367 29.3249C9.01367 29.5431 9.05665 29.7592 9.14016 29.9608C9.22367 30.1624 9.34607 30.3456 9.50037 30.4999C9.65468 30.6542 9.83786 30.7766 10.0395 30.8601C10.2411 30.9436 10.4572 30.9866 10.6754 30.9866C10.8936 30.9866 11.1097 30.9436 11.3113 30.8601C11.5129 30.7766 11.6961 30.6542 11.8504 30.4999L20.0004 22.3499L28.1504 30.4999C28.3047 30.6542 28.4879 30.7766 28.6895 30.8601C28.8911 30.9436 29.1072 30.9866 29.3254 30.9866C29.5436 30.9866 29.7597 30.9436 29.9613 30.8601C30.1629 30.7766 30.3461 30.6542 30.5004 30.4999C30.6547 30.3456 30.7771 30.1624 30.8606 29.9608C30.9441 29.7592 30.9871 29.5431 30.9871 29.3249C30.9871 29.1067 30.9441 28.8906 30.8606 28.689C30.7771 28.4874 30.6547 28.3042 30.5004 28.1499L22.3504 19.9999L30.5004 11.8499C31.1337 11.2166 31.1337 10.1499 30.5004 9.51655Z" fill="black"/>
</svg>
