<svg width="60" height="60" viewBox="0 0 60 60" fill="none" xmlns="http://www.w3.org/2000/svg">
<path d="M17.4088 60H42.5613C53.4868 60 60 53.49 60 42.57V17.46C60 6.51 53.4868 0 42.5613 0H17.4388C6.51335 0 0.000102997 6.51 0.000102997 17.43V42.57C-0.029911 53.49 6.48333 60 17.4088 60ZM31.1556 30.48C31.1556 21.24 33.1666 19.17 38.5393 15.99C38.8995 15.78 39.2897 15.69 39.6799 15.69C40.4603 15.69 41.2106 16.08 41.6308 16.8C42.2612 17.88 41.901 19.26 40.8505 19.89C37.2186 22.05 35.958 22.83 35.7179 28.26H41.4207C44.6924 28.26 47.2436 30.81 47.2436 34.08V38.52C47.2436 41.79 44.6924 44.34 41.4207 44.34H36.9485C33.7369 44.34 31.1256 41.73 31.1256 38.52V30.48H31.1556ZM12.7264 30.48C12.7264 21.24 14.7374 19.17 20.1101 15.99C20.4703 15.78 20.8605 15.69 21.2507 15.69C22.0311 15.69 22.7815 16.08 23.2017 16.8C23.832 17.88 23.4718 19.26 22.4213 19.89C18.7895 22.05 17.5288 22.83 17.2887 28.26H23.0216C26.2932 28.26 28.8445 30.81 28.8445 34.08V38.52C28.8445 41.79 26.2932 44.34 23.0216 44.34H18.5493C15.3377 44.34 12.7264 41.73 12.7264 38.52V30.48Z" fill="#87A01A"/>
</svg>
