<svg width="26" height="25" viewBox="0 0 26 25" fill="none" xmlns="http://www.w3.org/2000/svg">
<path d="M12.5383 1.10996C12.7091 0.699319 13.2909 0.699318 13.4617 1.10996L16.5858 8.62121C16.6578 8.79433 16.8206 8.91261 17.0075 8.9276L25.1165 9.57769C25.5598 9.61324 25.7396 10.1665 25.4018 10.4558L19.2236 15.7481C19.0812 15.8701 19.019 16.0615 19.0625 16.2439L20.9501 24.1569C21.0533 24.5895 20.5826 24.9314 20.2031 24.6996L13.2606 20.4592C13.1006 20.3615 12.8994 20.3615 12.7394 20.4592L5.79692 24.6996C5.41737 24.9314 4.94674 24.5895 5.04994 24.1569L6.93748 16.2439C6.98099 16.0615 6.9188 15.8701 6.77641 15.7481L0.598187 10.4558C0.260419 10.1665 0.440181 9.61324 0.883508 9.57769L8.99253 8.9276C9.17943 8.91261 9.34223 8.79433 9.41424 8.62121L12.5383 1.10996Z" fill="#FEB200"/>
</svg>
